<svg width="1000" height="400" xmlns="http://www.w3.org/2000/svg">
  <defs>
    <pattern id="grid" width="40" height="40" patternUnits="userSpaceOnUse">
      <circle cx="20" cy="20" r="1" fill="#ed991d" opacity="0.2"/>
    </pattern>
  </defs>
  <rect width="100%" height="100%" fill="url(#grid)" />
  
  <g opacity="0.3">
    <path d="M0,200 C100,150 200,250 300,200 C400,150 500,250 600,200 C700,150 800,250 900,200 C1000,150 1100,250 1200,200" stroke="#ed991d" stroke-width="1" fill="none" />
    <path d="M0,180 C100,130 200,230 300,180 C400,130 500,230 600,180 C700,130 800,230 900,180 C1000,130 1100,230 1200,180" stroke="#ed991d" stroke-width="1" fill="none" />
    <path d="M0,220 C100,170 200,270 300,220 C400,170 500,270 600,220 C700,170 800,270 900,220 C1000,170 1100,270 1200,220" stroke="#ed991d" stroke-width="1" fill="none" />
    
    <path d="M0,160 C100,110 200,210 300,160 C400,110 500,210 600,160 C700,110 800,210 900,160 C1000,110 1100,210 1200,160" stroke="#ed991d" stroke-width="0.7" fill="none" />
    <path d="M0,240 C100,190 200,290 300,240 C400,190 500,290 600,240 C700,190 800,290 900,240 C1000,190 1100,290 1200,240" stroke="#ed991d" stroke-width="0.7" fill="none" />
    
    <path d="M0,140 C100,90 200,190 300,140 C400,90 500,190 600,140 C700,90 800,190 900,140 C1000,90 1100,190 1200,140" stroke="#ed991d" stroke-width="0.5" fill="none" />
    <path d="M0,260 C100,210 200,310 300,260 C400,210 500,310 600,260 C700,210 800,310 900,260 C1000,210 1100,310 1200,260" stroke="#ed991d" stroke-width="0.5" fill="none" />
    
    <path d="M0,120 C100,70 200,170 300,120 C400,70 500,170 600,120 C700,70 800,170 900,120 C1000,70 1100,170 1200,120" stroke="#ed991d" stroke-width="0.3" fill="none" />
    <path d="M0,280 C100,230 200,330 300,280 C400,230 500,330 600,280 C700,230 800,330 900,280 C1000,230 1100,330 1200,280" stroke="#ed991d" stroke-width="0.3" fill="none" />
  </g>
</svg>